# xmcd
#
# Track frame offsets:
#	150
#	15100
#	26050
#	40370
#	54317
#	70632
#	80295
#	92045
#	107362
#	124440
#	136267
#	149350
#
# Disc length: 2142
#
# Revision: 1
# Processed by: cddbd v1.5.1PL0 Copyright (c) Steve Scherf et al.
# Submitted via: CDex 1.51
# Normalized: r0:TDELIM( - )
#
DISCID=94085c0c
DTITLE=Various Artist - Jazz and Blues Club Vol. 6
DYEAR=1989
DGENRE=Jazz
TTITLE0=Louis Armstrong - Mack The Knife
TTITLE1=Count Basie - Baby Won't You Please Come Home
TTITLE2=Lionel Hampton - The High And The Mighty
TTITLE3=Billie Holyday - Long Gone Blues
TTITLE4=Duke Ellington - Drawing Room Blues
TTITLE5=Benny Goodman - Alexander's Ragtime Band
TTITLE6=Django Reinhard - Dinah
TTITLE7=Dave Brubeck - Ain't Misbehavin'
TTITLE8=Ella Fitzgerald - The Hall Of It, Dearie, Blues
TTITLE9=Charlie Parker - Au Privave
TTITLE10=The Modern Jazz Quartet - Morning In Paris
TTITLE11=George Shearing - September Song
EXTD=YEAR: 1989
EXTT0=
EXTT1=
EXTT2=
EXTT3=
EXTT4=
EXTT5=
EXTT6=
EXTT7=
EXTT8=
EXTT9=
EXTT10=
EXTT11=
PLAYORDER=
